<svg width="70" height="70" viewBox="0 0 70 70" fill="none"
    xmlns="http://www.w3.org/2000/svg">
    <g clip-path="url(#clip0_35_63)">
        <path d="M35 70C25.7174 70 16.815 66.3125 10.2513 59.7487C3.68749 53.185 -2.58224e-07 44.2826 0 35C2.58224e-07 25.7174 3.68749 16.815 10.2513 10.2513C16.815 3.68749 25.7174 -1.10694e-07 35 0V10.5C28.5022 10.5 22.2705 13.0812 17.6759 17.6759C13.0812 22.2705 10.5 28.5022 10.5 35C10.5 41.4978 13.0812 47.7295 17.6759 52.3241C22.2705 56.9188 28.5022 59.5 35 59.5V70Z" fill="#DCDEE5"/>
        <path d="M35 70C44.2826 70 53.185 66.3125 59.7487 59.7487C66.3125 53.185 70 44.2826 70 35C70 25.7174 66.3125 16.815 59.7487 10.2513C53.185 3.68749 44.2826 1.80738e-06 35 0L35 10.5C41.4978 10.5 47.7295 13.0812 52.3241 17.6759C56.9188 22.2705 59.5 28.5022 59.5 35C59.5 41.4978 56.9188 47.7295 52.3241 52.3241C47.7295 56.9188 41.4978 59.5 35 59.5L35 70Z" fill="#FFCB13"/>
    </g>
    <defs>
        <clipPath id="clip0_35_63">
            <rect width="70" height="70" fill="white"/>
        </clipPath>
    </defs>
</svg>
