<svg width="70" height="70" viewBox="0 0 70 70" fill="none"
    xmlns="http://www.w3.org/2000/svg">
    <g clip-path="url(#clip0_35_108)">
        <path d="M70 35C70 41.9223 67.9473 48.6892 64.1015 54.445C60.2556 60.2007 54.7894 64.6867 48.3939 67.3358C41.9985 69.9849 34.9612 70.678 28.1719 69.3275C21.3825 67.977 15.1461 64.6436 10.2513 59.7487C5.35644 54.8539 2.02301 48.6175 0.672531 41.8282C-0.677952 35.0388 0.0151651 28.0015 2.66423 21.6061C5.3133 15.2107 9.79934 9.74441 15.5551 5.89856C21.3108 2.05271 28.0777 -8.25482e-08 35 0V10.5C30.1544 10.5 25.4176 11.9369 21.3885 14.629C17.3595 17.3211 14.2193 21.1475 12.365 25.6243C10.5106 30.101 10.0254 35.0272 10.9708 39.7797C11.9161 44.5322 14.2495 48.8977 17.6759 52.3241C21.1023 55.7505 25.4678 58.0839 30.2203 59.0292C34.9728 59.9746 39.899 59.4894 44.3758 57.635C48.8525 55.7807 52.6789 52.6405 55.371 48.6115C58.0631 44.5825 59.5 39.8456 59.5 35H70Z" fill="#DCDEE5"/>
        <path d="M70 35C70 30.4037 69.0947 25.8525 67.3358 21.6061C65.5769 17.3597 62.9988 13.5013 59.7487 10.2513C56.4987 7.00121 52.6403 4.42313 48.3939 2.66422C44.1475 0.905301 39.5963 -2.00909e-07 35 0V10.5C38.2174 10.5 41.4033 11.1337 44.3757 12.365C47.3482 13.5962 50.0491 15.4008 52.3241 17.6759C54.5992 19.9509 56.4038 22.6518 57.635 25.6243C58.8663 28.5967 59.5 31.7826 59.5 35H70Z" fill="#F9371E"/>
    </g>
    <defs>
        <clipPath id="clip0_35_108">
            <rect width="70" height="70" fill="white"/>
        </clipPath>
    </defs>
</svg>
